<?xml version="1.0" encoding="UTF-8"?>
<svg id="Capa_2" data-name="Capa 2" xmlns="http://www.w3.org/2000/svg" viewBox="0 0 1921 980.6">
  <defs>
    <style>
      .cls-1 {
        letter-spacing: -.02em;
      }

      .cls-2 {
        letter-spacing: -.02em;
      }

      .cls-3 {
        letter-spacing: 0em;
      }

      .cls-4 {
        letter-spacing: 0em;
      }

      .cls-5 {
        letter-spacing: -.05em;
      }

      .cls-6 {
        letter-spacing: 0em;
      }

      .cls-7 {
        letter-spacing: 0em;
      }

      .cls-8 {
        fill: none;
        stroke: #fff;
        stroke-miterlimit: 10;
      }

      .cls-9 {
        letter-spacing: 0em;
      }

      .cls-10 {
        letter-spacing: 0em;
      }

      .cls-11 {
        letter-spacing: 0em;
      }

      .cls-12 {
        font-size: 15px;
      }

      .cls-12, .cls-13, .cls-14 {
        fill: #fff;
        font-family: Montserrat-SemiBold, Montserrat;
        font-weight: 600;
      }

      .cls-15 {
        letter-spacing: 0em;
      }

      .cls-16 {
        fill: #77591c;
        stroke-width: 0px;
      }

      .cls-17 {
        letter-spacing: -.05em;
      }

      .cls-18 {
        letter-spacing: .01em;
      }

      .cls-19 {
        letter-spacing: 0em;
      }

      .cls-20 {
        letter-spacing: -.02em;
      }

      .cls-21 {
        letter-spacing: -.02em;
      }

      .cls-22 {
        letter-spacing: -.01em;
      }

      .cls-23 {
        letter-spacing: 0em;
      }

      .cls-24 {
        letter-spacing: 0em;
      }

      .cls-25 {
        letter-spacing: 0em;
      }

      .cls-13 {
        font-size: 13px;
      }

      .cls-26 {
        letter-spacing: -.02em;
      }

      .cls-27 {
        letter-spacing: 0em;
      }

      .cls-14 {
        font-size: 11px;
      }

      .cls-28 {
        letter-spacing: -.05em;
      }

      .cls-29 {
        letter-spacing: -.04em;
      }

      .cls-30 {
        letter-spacing: 0em;
      }

      .cls-31 {
        letter-spacing: 0em;
      }

      .cls-32 {
        letter-spacing: 0em;
      }

      .cls-33 {
        letter-spacing: -.01em;
      }

      .cls-34 {
        letter-spacing: -.01em;
      }

      .cls-35 {
        letter-spacing: -.01em;
      }

      .cls-36 {
        letter-spacing: -.02em;
      }

      .cls-37 {
        letter-spacing: -.02em;
      }

      .cls-38 {
        letter-spacing: 0em;
      }
    </style>
  </defs>
  <g id="Capa_4" data-name="Capa 4">
    <g>
      <polygon class="cls-16" points="585.94 354.5 585.94 301.83 536.83 301.39 536.83 355.83 585.94 354.5"/>
      <polygon class="cls-16" points="704.83 351.83 704.83 301.39 585.94 301.83 585.94 354.5 704.83 351.83"/>
      <polygon class="cls-16" points="131.5 298.06 131.5 234.5 275.5 240.17 275.5 299.39 131.5 298.06"/>
      <polygon class="cls-16" points="351.72 299.83 351.72 240.5 275.5 240.17 275.5 299.39 351.72 299.83"/>
      <polygon class="cls-16" points="441.65 300.5 441.65 244.17 351.72 240.5 351.72 299.83 441.65 300.5"/>
      <polygon class="cls-16" points="536.83 301.39 536.83 247.5 441.65 244.17 441.65 300.5 536.83 301.39"/>
      <polygon class="cls-16" points="585.94 301.83 585.94 248.17 536.83 247.5 536.83 301.39 585.94 301.83"/>
      <polygon class="cls-16" points="704.83 301.39 704.83 251.17 585.94 248.17 585.94 301.83 704.83 301.39"/>
      <polygon class="cls-16" points="131.5 234.5 131.5 173.17 275.5 180.5 275.5 240.17 131.5 234.5"/>
      <polygon class="cls-16" points="351.72 240.5 351.72 183.83 275.5 180.5 275.5 240.17 351.72 240.5"/>
      <polygon class="cls-16" points="441.65 244.17 441.65 188.5 351.72 183.83 351.72 240.5 441.65 244.17"/>
      <polygon class="cls-16" points="536.83 247.5 536.83 192.83 441.65 188.5 441.65 244.17 536.83 247.5"/>
      <polygon class="cls-16" points="585.94 248.17 585.94 195.5 536.83 192.83 536.83 247.5 585.94 248.17"/>
      <polygon class="cls-16" points="704.83 251.17 704.83 199.83 585.94 195.5 585.94 248.17 704.83 251.17"/>
      <polygon class="cls-16" points="131.5 173.17 131.5 104.83 353.17 121.17 351.72 183.83 275.5 180.5 131.5 173.17"/>
      <polygon class="cls-16" points="353.17 121.17 536.83 133.17 536.83 192.83 441.65 188.5 351.72 183.83 353.17 121.17"/>
      <polygon class="cls-16" points="536.83 133.17 706.5 144.33 704.83 199.83 585.94 195.5 536.83 192.83 536.83 133.17"/>
      <polygon class="cls-16" points="1026.83 522.5 1101.94 513.61 1101.94 570.28 1026.83 579.61 1026.83 522.5"/>
      <polygon class="cls-16" points="1101.94 570.28 1156.83 562.33 1156.83 508.5 1101.94 513.61 1101.94 570.28"/>
      <polygon class="cls-16" points="1156.83 562.33 1210.17 557 1210.17 504.5 1156.83 508.5 1156.83 562.33"/>
      <polygon class="cls-16" points="1210.17 504.5 1273 500 1273 549.33 1210.17 557 1210.17 504.5"/>
      <polygon class="cls-16" points="1273 500 1319.67 497 1319.67 545.67 1273 549.33 1273 500"/>
      <polygon class="cls-16" points="1319.67 497 1393.83 490.3 1393.83 535.5 1319.67 545.67 1319.67 497"/>
      <polygon class="cls-16" points="1026.83 522.5 1026.83 466 1104.67 460.83 1101.94 513.61 1026.83 522.5"/>
      <polygon class="cls-16" points="1156.83 508.5 1164.83 456.17 1104.67 460.83 1101.94 513.61 1156.83 508.5"/>
      <polygon class="cls-16" points="1210.17 504.5 1210.17 453.67 1164.83 456.17 1156.83 508.5 1210.17 504.5"/>
      <polygon class="cls-16" points="1273 500 1284.67 448.17 1210.17 453.67 1210.17 504.5 1273 500"/>
      <polygon class="cls-16" points="1319.67 497 1319.67 445.83 1284.67 448.17 1273 500 1319.67 497"/>
      <polygon class="cls-16" points="1393.83 490.3 1393.83 440.5 1319.67 445.83 1319.67 497 1393.83 490.3"/>
      <polygon class="cls-16" points="1104.67 407.5 1026.83 408.83 1026.83 466 1104.67 460.83 1104.67 407.5"/>
      <polygon class="cls-16" points="1164.83 456.17 1164.83 405 1104.67 407.5 1104.67 460.83 1164.83 456.17"/>
      <polygon class="cls-16" points="1164.83 405 1209.33 403 1210.17 453.67 1164.83 456.17 1164.83 405"/>
      <polygon class="cls-16" points="1284.67 448.17 1284.67 399.17 1209.33 403 1210.17 453.67 1284.67 448.17"/>
      <polygon class="cls-16" points="1319.67 445.83 1319.67 398.33 1284.67 399.17 1284.67 448.17 1319.67 445.83"/>
      <polygon class="cls-16" points="1393.83 440.5 1393.83 395.17 1319.67 398.33 1319.67 445.83 1393.83 440.5"/>
      <polygon class="cls-16" points="1209.33 403 1209.33 353.33 1164.83 353.33 1164.83 405 1209.33 403"/>
      <polygon class="cls-16" points="1284.67 399.17 1284.67 351.33 1209.33 353.33 1209.33 403 1284.67 399.17"/>
      <polygon class="cls-16" points="1319.67 398.33 1319.67 350.67 1284.67 351.33 1284.67 399.17 1319.67 398.33"/>
      <polygon class="cls-16" points="1393.83 395.17 1393.83 349.67 1319.67 350.67 1319.67 398.33 1393.83 395.17"/>
      <polygon class="cls-16" points="1026.83 408.83 1026.83 355.83 1104.67 354.5 1104.67 407.5 1026.83 408.83"/>
      <polygon class="cls-16" points="1104.67 354.5 1164.83 353.33 1164.83 405 1104.67 407.5 1104.67 354.5"/>
      <polygon class="cls-16" points="1026.83 300.17 1104.67 300.17 1104.67 354.5 1026.83 355.83 1026.83 300.17"/>
      <polygon class="cls-16" points="1104.67 300.17 1164.83 300.17 1164.83 353.33 1104.67 354.5 1104.67 300.17"/>
      <polygon class="cls-16" points="1209.33 353.33 1209.33 301 1164.83 300.17 1164.83 353.33 1209.33 353.33"/>
      <polygon class="cls-16" points="1209.33 301 1284.67 302 1284.67 351.33 1209.33 353.33 1209.33 301"/>
      <polygon class="cls-16" points="1319.67 350.67 1319.67 302 1284.67 302 1284.67 351.33 1319.67 350.67"/>
      <polygon class="cls-16" points="1393.83 349.67 1393.83 303.5 1319.67 302 1319.67 350.67 1393.83 349.67"/>
      <polygon class="cls-16" points="1026.83 300.17 1026.83 244.72 1104.67 248.5 1104.67 300.17 1026.83 300.17"/>
      <polygon class="cls-16" points="1104.67 248.5 1164.83 249.83 1164.83 300.17 1104.67 300.17 1104.67 248.5"/>
      <polygon class="cls-16" points="1209.33 301 1209.33 251.83 1164.83 249.83 1164.83 300.17 1209.33 301"/>
      <polygon class="cls-16" points="1284.67 302 1284.67 254.72 1209.33 251.83 1209.33 301 1284.67 302"/>
      <polygon class="cls-16" points="1319.67 302 1319.67 255.39 1284.67 254.72 1284.67 302 1319.67 302"/>
      <polygon class="cls-16" points="1393.83 303.5 1393.83 258.72 1319.67 255.39 1319.67 302 1393.83 303.5"/>
      <polygon class="cls-16" points="1026.83 244.72 1026.83 190.5 1104.67 195.5 1104.67 248.5 1026.83 244.72"/>
      <polygon class="cls-16" points="1164.83 249.83 1164.83 199.83 1104.67 195.5 1104.67 248.5 1164.83 249.83"/>
      <polygon class="cls-16" points="1209.33 251.83 1209.33 201.83 1164.83 199.83 1164.83 249.83 1209.33 251.83"/>
      <polygon class="cls-16" points="1284.67 254.72 1284.67 206.5 1209.33 201.83 1209.33 251.83 1284.67 254.72"/>
      <polygon class="cls-16" points="1319.67 255.39 1319.67 208.17 1284.67 206.5 1284.67 254.72 1319.67 255.39"/>
      <polygon class="cls-16" points="1393.83 258.72 1393.83 212.5 1319.67 208.17 1319.67 255.39 1393.83 258.72"/>
      <polygon class="cls-16" points="1026.83 190.5 1026.83 142.17 1164.83 152.5 1164.83 199.83 1104.67 195.5 1026.83 190.5"/>
      <polygon class="cls-16" points="1284.67 206.5 1284.67 156.17 1164.83 152.5 1164.83 199.83 1209.33 201.83 1284.67 206.5"/>
      <polygon class="cls-16" points="1393.83 212.5 1393.83 166.5 1284.67 156.17 1284.67 206.5 1319.67 208.17 1393.83 212.5"/>
      <text class="cls-12" transform="translate(186.87 583.27)"><tspan x="0" y="0">B312</tspan></text>
      <text class="cls-12" transform="translate(401.21 780.04)"><tspan x="0" y="0">B212</tspan></text>
      <text class="cls-12" transform="translate(393.71 876.77)"><tspan x="0" y="0">GHB12</tspan></text>
      <text class="cls-12" transform="translate(536.52 757.99)"><tspan x="0" y="0">B210</tspan></text>
      <text class="cls-12" transform="translate(529.02 850.18)"><tspan x="0" y="0">GHB10</tspan></text>
      <text class="cls-12" transform="translate(631.57 742.79)"><tspan x="0" y="0">B208</tspan></text>
      <text class="cls-12" transform="translate(629.12 829.27)"><tspan x="0" y="0">GHB8</tspan></text>
      <text class="cls-12" transform="translate(741.59 724.24)"><tspan x="0" y="0">B206</tspan></text>
      <text class="cls-12" transform="translate(739.14 806.43)"><tspan x="0" y="0">GHB6</tspan></text>
      <text class="cls-12" transform="translate(830.12 709.38)"><tspan x="0" y="0">B204</tspan></text>
      <text class="cls-12" transform="translate(827.67 790.52)"><tspan x="0" y="0">GHB4</tspan></text>
      <text class="cls-12" transform="translate(924.36 694.54)"><tspan x="0" y="0">B2</tspan><tspan class="cls-25" x="20.14" y="0">0</tspan><tspan class="cls-7" x="30.22" y="0">2</tspan></text>
      <text class="cls-12" transform="translate(921.9 773.52)"><tspan x="0" y="0">GHB2</tspan></text>
      <text class="cls-12" transform="translate(1045.75 496.1)"><tspan class="cls-21" x="0" y="0">A</tspan><tspan class="cls-31" x="11.01" y="0">4</tspan><tspan class="cls-24" x="21.19" y="0">0</tspan><tspan x="31.27" y="0">2</tspan></text>
      <text class="cls-12" transform="translate(1046.35 441.18)"><tspan x="0" y="0">A5</tspan><tspan class="cls-24" x="20" y="0">0</tspan><tspan x="30.07" y="0">2</tspan></text>
      <text class="cls-12" transform="translate(1046.1 386.1)"><tspan class="cls-32" x="0" y="0">A</tspan><tspan x="11.08" y="0">6</tspan><tspan class="cls-25" x="20.49" y="0">0</tspan><tspan x="30.57" y="0">2</tspan></text>
      <text class="cls-12" transform="translate(1046.69 332.43)"><tspan class="cls-28" x="0" y="0">A</tspan><tspan class="cls-2" x="10.48" y="0">7</tspan><tspan class="cls-24" x="19.31" y="0">0</tspan><tspan x="29.38" y="0">2</tspan></text>
      <text class="cls-12" transform="translate(1045.88 276.88)"><tspan class="cls-30" x="0" y="0">A</tspan><tspan x="11.16" y="0">8</tspan><tspan class="cls-25" x="20.94" y="0">0</tspan><tspan class="cls-7" x="31.02" y="0">2</tspan></text>
      <text class="cls-12" transform="translate(1046.12 223.93)"><tspan class="cls-22" x="0" y="0">A</tspan><tspan class="cls-31" x="11.04" y="0">9</tspan><tspan class="cls-24" x="20.45" y="0">0</tspan><tspan x="30.52" y="0">2</tspan></text>
      <text class="cls-12" transform="translate(1074.14 175.43)"><tspan class="cls-32" x="0" y="0">P</tspan><tspan x="10.74" y="0">H</tspan><tspan class="cls-32" x="22.89" y="0">A</tspan><tspan x="33.98" y="0">6</tspan></text>
      <text class="cls-12" transform="translate(1202.71 183.93)"><tspan class="cls-32" x="0" y="0">P</tspan><tspan x="10.74" y="0">H</tspan><tspan class="cls-21" x="22.89" y="0">A</tspan><tspan x="33.9" y="0">4</tspan></text>
      <text class="cls-12" transform="translate(1317.82 190.5)"><tspan class="cls-32" x="0" y="0">P</tspan><tspan x="10.74" y="0">HA2</tspan></text>
      <text class="cls-12" transform="translate(1044.93 551.04)"><tspan class="cls-38" x="0" y="0">A</tspan><tspan x="11.38" y="0">3</tspan><tspan class="cls-24" x="20.11" y="0">0</tspan><tspan x="30.19" y="0">2</tspan></text>
      <text class="cls-12" transform="translate(1112.65 489.32)"><tspan class="cls-21" x="0" y="0">A</tspan><tspan class="cls-31" x="11.01" y="0">404</tspan></text>
      <text class="cls-12" transform="translate(1114.61 437.35)"><tspan x="0" y="0">A504</tspan></text>
      <text class="cls-12" transform="translate(1114.37 384.85)"><tspan class="cls-32" x="0" y="0">A</tspan><tspan x="11.08" y="0">604</tspan></text>
      <text class="cls-12" transform="translate(1114.96 331.77)"><tspan class="cls-28" x="0" y="0">A</tspan><tspan class="cls-2" x="10.48" y="0">7</tspan><tspan x="19.31" y="0">04</tspan></text>
      <text class="cls-12" transform="translate(1114.14 278.77)"><tspan class="cls-30" x="0" y="0">A</tspan><tspan x="11.16" y="0">804</tspan></text>
      <text class="cls-12" transform="translate(1114.39 227.1)"><tspan class="cls-22" x="0" y="0">A</tspan><tspan class="cls-31" x="11.04" y="0">904</tspan></text>
      <text class="cls-12" transform="translate(1226.84 232.71)"><tspan class="cls-22" x="0" y="0">A</tspan><tspan class="cls-31" x="11.04" y="0">908</tspan></text>
      <text class="cls-12" transform="translate(1226.59 281.35)"><tspan class="cls-30" x="0" y="0">A</tspan><tspan x="11.16" y="0">808</tspan></text>
      <text class="cls-12" transform="translate(1227.41 331.6)"><tspan class="cls-28" x="0" y="0">A</tspan><tspan class="cls-2" x="10.48" y="0">7</tspan><tspan x="19.31" y="0">08</tspan></text>
      <text class="cls-12" transform="translate(1226.82 381.6)"><tspan class="cls-32" x="0" y="0">A</tspan><tspan x="11.08" y="0">608</tspan></text>
      <text class="cls-12" transform="translate(1227.07 430.85)"><tspan x="0" y="0">A508</tspan></text>
      <text class="cls-12" transform="translate(1226.88 480.77)"><tspan class="cls-21" x="0" y="0">A</tspan><tspan class="cls-31" x="11.01" y="0">408</tspan></text>
      <text class="cls-12" transform="translate(1221.59 532.93)"><tspan class="cls-38" x="0" y="0">A</tspan><tspan x="11.38" y="0">308</tspan></text>
      <text class="cls-12" transform="translate(1339.47 522.42)"><tspan class="cls-38" x="0" y="0">A</tspan><tspan x="11.38" y="0">312</tspan></text>
      <text class="cls-12" transform="translate(1339.12 473.18)"><tspan class="cls-21" x="0" y="0">A</tspan><tspan class="cls-26" x="11.01" y="0">4</tspan><tspan x="20.82" y="0">12</tspan></text>
      <text class="cls-12" transform="translate(1339.53 424.93)"><tspan x="0" y="0">A512</tspan></text>
      <text class="cls-12" transform="translate(1339.28 378.43)"><tspan class="cls-32" x="0" y="0">A</tspan><tspan x="11.08" y="0">612</tspan></text>
      <text class="cls-12" transform="translate(1339.65 330.77)"><tspan class="cls-28" x="0" y="0">A</tspan><tspan class="cls-18" x="10.48" y="0">7</tspan><tspan x="19.75" y="0">12</tspan></text>
      <text class="cls-12" transform="translate(1339.06 283.88)"><tspan class="cls-30" x="0" y="0">A</tspan><tspan x="11.16" y="0">812</tspan></text>
      <text class="cls-12" transform="translate(1339.31 237.88)"><tspan class="cls-22" x="0" y="0">A</tspan><tspan class="cls-25" x="11.04" y="0">9</tspan><tspan x="20.43" y="0">12</tspan></text>
      <text class="cls-12" transform="translate(1109.19 543.82)"><tspan class="cls-38" x="0" y="0">A</tspan><tspan x="11.38" y="0">304</tspan></text>
      <text class="cls-13" transform="translate(1165.87 484.92)"><tspan class="cls-35" x="0" y="0">A</tspan><tspan x="9.54" y="0">406</tspan></text>
      <text class="cls-13" transform="translate(1170.39 433.42)"><tspan x="0" y="0">A506</tspan></text>
      <text class="cls-13" transform="translate(1169.75 383.01)"><tspan class="cls-10" x="0" y="0">A</tspan><tspan x="9.61" y="0">606</tspan></text>
      <text class="cls-13" transform="translate(1170.27 330.59)"><tspan class="cls-17" x="0" y="0">A</tspan><tspan class="cls-20" x="9.09" y="0">7</tspan><tspan x="16.73" y="0">06</tspan></text>
      <text class="cls-13" transform="translate(1169.56 279.26)"><tspan class="cls-9" x="0" y="0">A</tspan><tspan x="9.67" y="0">806</tspan></text>
      <text class="cls-13" transform="translate(1169.77 229.67)"><tspan class="cls-34" x="0" y="0">A</tspan><tspan class="cls-27" x="9.57" y="0">906</tspan></text>
      <text class="cls-14" transform="translate(1288.88 234.19)"><tspan class="cls-33" x="0" y="0">A</tspan><tspan class="cls-19" x="8.1" y="0">9</tspan><tspan class="cls-15" x="14.98" y="0">10</tspan></text>
      <text class="cls-14" transform="translate(1288.69 281.61)"><tspan class="cls-11" x="0" y="0">A</tspan><tspan x="8.18" y="0">810</tspan></text>
      <text class="cls-14" transform="translate(1289.13 329.92)"><tspan class="cls-5" x="0" y="0">A</tspan><tspan class="cls-4" x="7.69" y="0">7</tspan><tspan x="14.49" y="0">10</tspan></text>
      <text class="cls-14" transform="translate(1288.86 378.17)"><tspan class="cls-23" x="0" y="0">A</tspan><tspan x="8.13" y="0">610</tspan></text>
      <text class="cls-14" transform="translate(1289.04 426.5)"><tspan x="0" y="0">A510</tspan></text>
      <text class="cls-14" transform="translate(1282.9 476.17)"><tspan class="cls-1" x="0" y="0">A</tspan><tspan class="cls-37" x="8.07" y="0">4</tspan><tspan x="15.27" y="0">10</tspan></text>
      <text class="cls-14" transform="translate(1283.16 526.42)"><tspan class="cls-4" x="0" y="0">A</tspan><tspan x="8.35" y="0">310</tspan></text>
      <text class="cls-13" transform="translate(1166.33 537.26)"><tspan class="cls-3" x="0" y="0">A</tspan><tspan x="9.87" y="0">306</tspan></text>
      <text class="cls-12" transform="translate(296.3 573.38)"><tspan x="0" y="0">B310</tspan></text>
      <text class="cls-12" transform="translate(376.68 565.43)"><tspan x="0" y="0">B308</tspan></text>
      <text class="cls-12" transform="translate(469.42 558.5)"><tspan x="0" y="0">B306</tspan></text>
      <text class="cls-12" transform="translate(541.18 552.04)"><tspan x="0" y="0">B304</tspan></text>
      <text class="cls-12" transform="translate(625.91 545.04)"><tspan x="0" y="0">B3</tspan><tspan class="cls-25" x="20.14" y="0">0</tspan><tspan class="cls-7" x="30.22" y="0">2</tspan></text>
      <text class="cls-12" transform="translate(186.33 515.71)"><tspan x="0" y="0">B</tspan><tspan class="cls-26" x="11.41" y="0">4</tspan><tspan x="21.22" y="0">12</tspan></text>
      <text class="cls-12" transform="translate(295.09 508.82)"><tspan x="0" y="0">B</tspan><tspan class="cls-26" x="11.41" y="0">4</tspan><tspan x="21.22" y="0">10</tspan></text>
      <text class="cls-12" transform="translate(375.95 503.71)"><tspan x="0" y="0">B408</tspan></text>
      <text class="cls-12" transform="translate(468.69 498.09)"><tspan x="0" y="0">B406</tspan></text>
      <text class="cls-12" transform="translate(540.45 493.28)"><tspan x="0" y="0">B404</tspan></text>
      <text class="cls-12" transform="translate(625.18 486.28)"><tspan x="0" y="0">B4</tspan><tspan class="cls-25" x="21.6" y="0">0</tspan><tspan class="cls-7" x="31.68" y="0">2</tspan></text>
      <text class="cls-12" transform="translate(186.19 455.93)"><tspan x="0" y="0">B512</tspan></text>
      <text class="cls-12" transform="translate(295.62 451.27)"><tspan x="0" y="0">B510</tspan></text>
      <text class="cls-12" transform="translate(376.66 447.27)"><tspan x="0" y="0">B508</tspan></text>
      <text class="cls-12" transform="translate(469.4 443.27)"><tspan x="0" y="0">B506</tspan></text>
      <text class="cls-12" transform="translate(541.16 439.39)"><tspan x="0" y="0">B504</tspan></text>
      <text class="cls-12" transform="translate(625.9 432.39)"><tspan x="0" y="0">B5</tspan><tspan class="cls-25" x="20.17" y="0">0</tspan><tspan class="cls-7" x="30.25" y="0">2</tspan></text>
      <text class="cls-12" transform="translate(185.87 395.27)"><tspan x="0" y="0">B612</tspan></text>
      <text class="cls-12" transform="translate(295.3 392.49)"><tspan x="0" y="0">B610</tspan></text>
      <text class="cls-12" transform="translate(376.34 390.38)"><tspan x="0" y="0">B608</tspan></text>
      <text class="cls-12" transform="translate(469.08 388.71)"><tspan x="0" y="0">B606</tspan></text>
      <text class="cls-12" transform="translate(540.84 384.83)"><tspan x="0" y="0">B604</tspan></text>
      <text class="cls-12" transform="translate(625.57 377.83)"><tspan x="0" y="0">B6</tspan><tspan class="cls-25" x="20.82" y="0">0</tspan><tspan class="cls-7" x="30.9" y="0">2</tspan></text>
      <text class="cls-12" transform="translate(185.94 333.93)"><tspan x="0" y="0">B</tspan><tspan class="cls-38" x="11.42" y="0">7</tspan><tspan x="20.68" y="0">12</tspan></text>
      <text class="cls-12" transform="translate(295.36 333.38)"><tspan x="0" y="0">B</tspan><tspan class="cls-38" x="11.42" y="0">7</tspan><tspan x="20.68" y="0">10</tspan></text>
      <text class="cls-12" transform="translate(376.63 333.04)"><tspan x="0" y="0">B</tspan><tspan class="cls-36" x="11.42" y="0">7</tspan><tspan x="20.23" y="0">08</tspan></text>
      <text class="cls-12" transform="translate(469.37 332.6)"><tspan x="0" y="0">B</tspan><tspan class="cls-36" x="11.42" y="0">7</tspan><tspan x="20.23" y="0">06</tspan></text>
      <text class="cls-12" transform="translate(541.13 329.72)"><tspan x="0" y="0">B</tspan><tspan class="cls-2" x="11.41" y="0">7</tspan><tspan x="20.23" y="0">04</tspan></text>
      <text class="cls-12" transform="translate(625.87 322.72)"><tspan x="0" y="0">B</tspan><tspan class="cls-36" x="11.42" y="0">7</tspan><tspan class="cls-25" x="20.23" y="0">0</tspan><tspan class="cls-7" x="30.31" y="0">2</tspan></text>
      <text class="cls-12" transform="translate(185.68 271.38)"><tspan x="0" y="0">B812</tspan></text>
      <text class="cls-12" transform="translate(295.11 274.43)"><tspan x="0" y="0">B810</tspan></text>
      <text class="cls-12" transform="translate(376.15 274.93)"><tspan x="0" y="0">B808</tspan></text>
      <text class="cls-12" transform="translate(468.89 277.21)"><tspan x="0" y="0">B806</tspan></text>
      <text class="cls-12" transform="translate(540.65 277.5)"><tspan x="0" y="0">B804</tspan></text>
      <text class="cls-12" transform="translate(625.39 270.5)"><tspan x="0" y="0">B8</tspan><tspan class="cls-24" x="21.19" y="0">0</tspan><tspan x="31.27" y="0">2</tspan></text>
      <text class="cls-12" transform="translate(185.88 211.1)"><tspan x="0" y="0">B</tspan><tspan class="cls-24" x="11.42" y="0">9</tspan><tspan class="cls-31" x="20.8" y="0">12</tspan></text>
      <text class="cls-12" transform="translate(220.48 146.23)"><tspan class="cls-32" x="0" y="0">P</tspan><tspan x="10.74" y="0">HB6</tspan></text>
      <text class="cls-12" transform="translate(295.3 214.93)"><tspan x="0" y="0">B</tspan><tspan class="cls-25" x="11.41" y="0">9</tspan><tspan class="cls-31" x="20.8" y="0">10</tspan></text>
      <text class="cls-12" transform="translate(376.34 218.43)"><tspan x="0" y="0">B908</tspan></text>
      <text class="cls-12" transform="translate(469.08 222.43)"><tspan x="0" y="0">B906</tspan></text>
      <text class="cls-12" transform="translate(422.03 161.43)"><tspan class="cls-32" x="0" y="0">P</tspan><tspan x="10.74" y="0">HB4</tspan></text>
      <text class="cls-12" transform="translate(540.84 222.39)"><tspan x="0" y="0">B904</tspan></text>
      <text class="cls-12" transform="translate(625.57 215.39)"><tspan x="0" y="0">B9</tspan><tspan class="cls-25" x="20.82" y="0">0</tspan><tspan class="cls-7" x="30.9" y="0">2</tspan></text>
      <text class="cls-12" transform="translate(623.87 173.17)"><tspan class="cls-32" x="0" y="0">P</tspan><tspan x="10.74" y="0">HB2</tspan></text>
      <rect class="cls-8" x=".5" y=".5" width="1920" height="979.6"/>
      <polygon class="cls-16" points="1295.5 670.94 1350 661 1350 720.67 1296 727.61 1295.5 670.94"/>
      <polygon class="cls-16" points="1350 661 1400.06 652.42 1400.06 712.06 1350 720.67 1350 661"/>
      <polygon class="cls-16" points="1400.06 652.42 1446.28 642.61 1446.28 705.17 1400.06 712.06 1400.06 652.42"/>
      <polygon class="cls-16" points="1446.28 642.61 1530.06 625.94 1529.39 684.06 1446.28 705.17 1446.28 642.61"/>
      <polygon class="cls-16" points="1160.83 691.61 1160.83 618.94 1240.17 605.83 1243.17 678.39 1160.83 691.61"/>
      <polygon class="cls-16" points="1240.17 605.83 1295.5 596.94 1295.5 670.94 1243.17 678.39 1240.17 605.83"/>
      <polygon class="cls-16" points="1295.5 596.94 1350 588.72 1350 661 1295.5 670.94 1295.5 596.94"/>
      <polygon class="cls-16" points="1350 588.72 1400.06 581.83 1400.06 652.42 1350 661 1350 588.72"/>
      <polygon class="cls-16" points="1400.06 581.83 1446.28 575.17 1446.28 642.61 1400.06 652.42 1400.06 581.83"/>
      <polygon class="cls-16" points="1446.28 575.17 1530.06 562.33 1530.06 625.94 1446.28 642.61 1446.28 575.17"/>
      <text class="cls-12" transform="translate(1180.52 723.54)"><tspan x="0" y="0">GHA2</tspan></text>
      <text class="cls-13" transform="translate(1250.09 709.01)"><tspan x="0" y="0">GH</tspan><tspan class="cls-35" x="20.57" y="0">A</tspan><tspan x="30.11" y="0">4</tspan></text>
      <text class="cls-13" transform="translate(1401.44 681.17)"><tspan x="0" y="0">GH</tspan><tspan class="cls-29" x="20.57" y="0">A</tspan><tspan x="29.76" y="0">10</tspan></text>
      <text class="cls-12" transform="translate(1300.64 698.74)"><tspan x="0" y="0">GH</tspan><tspan class="cls-32" x="23.73" y="0">A</tspan><tspan x="34.81" y="0">6</tspan></text>
      <text class="cls-12" transform="translate(1352.69 690.97)"><tspan x="0" y="0">GH</tspan><tspan class="cls-6" x="23.73" y="0">A</tspan><tspan class="cls-31" x="34.89" y="0">8</tspan></text>
      <text class="cls-12" transform="translate(1463.78 669.99)"><tspan x="0" y="0">GH</tspan><tspan class="cls-29" x="23.73" y="0">A</tspan><tspan x="34.33" y="0">12</tspan></text>
      <text class="cls-12" transform="translate(1182.65 653.15)"><tspan x="0" y="0">A2</tspan><tspan class="cls-24" x="19.96" y="0">0</tspan><tspan x="30.04" y="0">2</tspan></text>
      <text class="cls-13" transform="translate(1250.39 641.51)"><tspan x="0" y="0">A204</tspan></text>
      <text class="cls-13" transform="translate(1407.66 617.63)"><tspan x="0" y="0">A210</tspan></text>
      <text class="cls-12" transform="translate(1303.02 634.27)"><tspan x="0" y="0">A206</tspan></text>
      <text class="cls-12" transform="translate(1355.11 625.85)"><tspan x="0" y="0">A208</tspan></text>
      <text class="cls-12" transform="translate(1470.96 606.9)"><tspan x="0" y="0">A212</tspan></text>
    </g>
  </g>
</svg>