<svg width="120" class="h-8" viewBox="0 0 771 310" fill="none" xmlns="http://www.w3.org/2000/svg">
<path d="M17.19 69.35H28.83L70.86 164.71L112.89 69.35H124.7V179.38H113.68V91.51L74.96 179.38H66.93L28.21 91.83V179.38H17.19V69.35Z" fill="#79B7D7"/>
<path d="M252.84 152.91H202.78L193.18 179.38H181.53L221.67 69.35H234.1L274.08 179.38H262.43L252.83 152.91H252.84ZM227.81 83.38L206.09 143.66H249.54L227.82 83.38H227.81Z" fill="#79B7D7"/>
<path d="M364.14 69.35C389.64 69.35 401.6 83.2 401.6 101.3C401.6 116.41 393.1 129.16 374.53 132.62L402.86 179.37H389.64L362.41 133.41H342.1V179.37H331.08V69.34H364.14V69.35ZM364.14 78.64H342.1V124.45H364.3C382.24 124.45 390.27 114.69 390.27 101.31C390.27 87.93 382.71 78.64 364.14 78.64Z" fill="#79B7D7"/>
<path d="M473.86 69.35H462.84V179.38H473.86V69.35Z" fill="#79B7D7"/>
<path d="M621.19 69.35V179.38H610.17L549.26 86.82V179.38H538.24V69.35H549.26L610.17 161.75V69.35H621.19Z" fill="#79B7D7"/>
<path d="M749.33 152.91H699.27L689.67 179.38H678.02L718.16 69.35H730.6L770.58 179.38H758.93L749.33 152.91ZM724.3 83.38L702.58 143.66H746.03L724.31 83.38H724.3Z" fill="#79B7D7"/>
<path d="M169.85 228.87L156.94 228.82C150.86 214.63 137.52 205.44 119.89 205.36C95.49 205.26 76.69 222.81 76.56 251.29C76.44 279.78 95.09 297.65 119.49 297.75C142.63 297.85 159.7 282.34 161.54 257.32L115.26 257.12L115.3 248.15L173.22 248.4L173.19 256.43C171.33 285.54 149.51 307.8 119.45 307.67C88.6 307.54 65.09 284.29 65.23 251.24C65.37 218.34 89.09 195.15 119.94 195.28C143.55 195.38 162.07 207.9 169.85 228.87Z" fill="#79B7D7"/>
<path d="M288.898 195.198L288.404 308.537L299.424 308.585L299.918 195.247L288.898 195.198Z" fill="#79B7D7"/>
<path d="M336.79 233.95L324.83 233.9L324.87 224.86L336.83 224.91L336.85 219.09C336.93 201.17 345.63 192.63 367.35 192.72L367.31 201.91C352.67 201.85 347.92 207.03 347.87 219.13L347.84 224.95L367.83 225.03L367.79 234.07L347.8 233.99L347.47 308.57L336.45 308.52L336.78 233.94L336.79 233.95Z" fill="#79B7D7"/>
<path d="M29.97 11.09V23.39H57.33V34H29.97V46.55H61.22V57.15H17.18V0.48999H61.22V11.09H29.97Z" fill="#2C4769"/>
<path d="M133.66 6.15L128.72 16.75C122.73 13.19 115.61 10.92 111.08 10.92C106.79 10.92 103.88 12.46 103.88 15.53C103.88 25.97 134.07 20.14 133.99 40.54C133.99 51.63 124.36 57.62 111.81 57.62C102.5 57.62 93.19 54.06 86.8 48.64L91.9 38.2C97.73 43.38 105.99 46.7 111.98 46.7C117.24 46.7 120.4 44.76 120.4 41.28C120.4 30.6 90.21 36.83 90.21 16.75C90.2 6.48 99.02 0 112.13 0C120.06 0 128 2.43 133.66 6.15Z" fill="#2C4769"/>
<path d="M183.61 0.48999C198.02 0.48999 206.27 7.60999 206.27 20.16C206.27 33.35 198.01 40.96 183.61 40.96H172.36V57.15H159.57V0.48999H183.61ZM172.36 30.28H182.96C190.08 30.28 194.13 27.04 194.13 20.57C194.13 14.1 190.08 11.1 182.96 11.1H172.36V30.28Z" fill="#2C4769"/>
<path d="M348.96 9.39L341.51 18.46C337.62 14.01 332.04 11.09 326.78 11.09C317.07 11.09 309.54 18.62 309.54 28.49C309.54 38.36 317.07 45.98 326.78 45.98C331.88 45.98 337.46 43.39 341.51 39.34L349.04 47.52C343.05 53.67 334.39 57.64 326.13 57.64C309.21 57.64 296.42 45.1 296.42 28.66C296.42 12.22 309.46 0 326.62 0C334.8 0 343.38 3.64 348.96 9.39Z" fill="#2C4769"/>
<path d="M387.41 0.48999H374.62V57.15H387.41V0.48999Z" fill="#2C4769"/>
<path d="M473.85 28.74C473.85 45.09 460.74 57.64 443.42 57.64C426.1 57.64 412.98 45.17 412.98 28.74C412.98 12.31 426.1 0 443.42 0C460.74 0 473.85 12.31 473.85 28.74ZM426.09 28.74C426.09 38.7 434.1 46.47 443.57 46.47C453.04 46.47 460.73 38.7 460.73 28.74C460.73 18.78 453.04 11.18 443.57 11.18C434.1 11.18 426.09 18.79 426.09 28.74Z" fill="#2C4769"/>
<path d="M256.16 0.48999H242.96L218.36 57.15H231.55L236 46.14H236.03L240.22 35.86H240.21L249.2 13.84L258.1 35.86H258.08L266.68 57.15H280.36L256.16 0.48999Z" fill="#2C4769"/>
<path d="M473.85 53.75C473.85 55.86 472.15 57.63 469.98 57.63C467.81 57.63 466.14 55.88 466.14 53.77C466.14 51.66 467.82 49.89 470 49.89C472.18 49.89 473.85 51.63 473.85 53.75ZM473.03 53.75C473.03 52.1 471.71 50.75 470 50.75C468.29 50.75 466.96 52.13 466.96 53.78C466.96 55.43 468.27 56.78 469.98 56.78C471.69 56.78 473.03 55.4 473.03 53.75ZM470.92 54.26L471.73 55.49H470.78L470.19 54.42H469.35V55.49H468.53V51.79H470.1C471.08 51.79 471.63 52.26 471.63 53.06C471.63 53.64 471.38 54.05 470.92 54.26ZM470.1 53.76C470.57 53.76 470.84 53.52 470.84 53.1C470.84 52.68 470.57 52.45 470.1 52.45H469.35V53.76H470.1Z" fill="#2C4769"/>
<path d="M42.12 209.32C41.37 213.47 41.11 217.74 41.11 222.14C41.11 233.71 43.5 246.28 48.65 257.34C59.46 250.68 67.51 239.99 67.51 230.69C67.51 226.54 65.88 222.64 62.1 219.63C62.35 218.25 65.75 217.24 69.27 217.24C74.42 217.24 76.81 220.01 76.81 224.41C76.81 233.71 66.13 250.06 50.16 260.49C53.81 267.28 58.58 273.56 64.74 278.59C64.74 278.59 65.24 279.22 65.24 279.85C65.24 280.61 64.48 280.86 63.73 280.86C62.6 280.86 61.47 280.36 61.47 280.36C54.81 276.21 49.28 270.3 45 263.51C37.46 267.53 28.91 270.17 20.11 270.17C5.65999 270.17 -0.0100098 263.88 -0.0100098 255.33C-0.0100098 241.25 15.71 221.14 33.69 213.97C33.81 212.71 33.94 211.58 34.19 210.33C33.31 210.45 32.43 210.58 31.68 210.58C29.79 210.58 26.4 209.57 26.4 206.56C26.4 205.68 26.9 204.92 27.91 204.92C29.17 205.05 31.3 205.17 33.32 205.17H35.33C39.73 188.83 51.17 176.51 70.4 176.51C78.82 176.51 83.1 179.78 83.1 184.43C83.1 192.6 69.52 204.92 42.12 209.32ZM33.19 222.14C33.19 220.51 33.19 218.75 33.32 217.11C20.62 222.01 10.82 237.1 10.82 248.79C10.82 257.08 15.72 263.62 27.92 263.62C33.07 263.62 38.23 262.36 43.01 260.35C36.47 248.91 33.2 235.08 33.2 222.13M64.76 180.77C54.07 180.77 46.53 190.7 43.14 204.66C65.27 202.27 73.31 194.1 73.31 187.94C73.31 183.92 69.92 180.77 64.76 180.77Z" fill="#2C4769"/>
<path d="M406.7 195.33H397.95V223.73H401.58V211.99H406.7C412.79 211.99 416.43 208.88 416.43 203.68C416.43 198.48 412.79 195.33 406.7 195.33ZM406.7 208.76H401.58V198.53H406.7C410.81 198.53 412.72 200.17 412.72 203.68C412.72 207.19 410.75 208.75 406.7 208.75" fill="#2C4769"/>
<path d="M428.04 198.49H435.72V223.73H439.35V198.49H446.99V195.33H428.04V198.49Z" fill="#2C4769"/>
<path d="M473.13 195.01C464.98 195.01 459.07 201.11 459.07 209.51C459.07 217.91 464.98 224.01 473.13 224.01C481.28 224.01 487.2 217.91 487.2 209.51C487.2 201.11 481.28 195.01 473.13 195.01ZM483.49 209.51C483.49 216.22 479.33 220.73 473.13 220.73C466.93 220.73 462.78 216.22 462.78 209.51C462.78 202.8 466.94 198.33 473.13 198.33C479.32 198.33 483.49 202.82 483.49 209.51Z" fill="#2C4769"/>
<path d="M502.12 218.99C500.72 218.99 499.67 220.04 499.67 221.43C499.67 222.82 500.75 223.92 502.12 223.92C503.49 223.92 504.53 222.83 504.53 221.43C504.53 220.03 503.47 218.99 502.12 218.99Z" fill="#2C4769"/>
<path d="M535.63 219.03L526.91 195.33H522.98L533.64 223.45L533.75 223.73H537.5L548.04 195.92L548.27 195.33H544.41L535.63 219.03Z" fill="#2C4769"/>
<path d="M569.46 195.68L559.09 223.73H562.94L565.34 217.19H577.25L579.65 223.73H583.5L573.17 195.68H569.45H569.46ZM576.11 214.03H566.5L571.31 200.86L576.12 214.03H576.11Z" fill="#2C4769"/>
<path d="M600.33 195.33H596.7V223.73H610.22V220.61H600.33V195.33Z" fill="#2C4769"/>
<path d="M626.75 195.33H623.12V223.73H636.64V220.61H626.75V195.33Z" fill="#2C4769"/>
<path d="M657.83 195.68L647.46 223.73H651.31L653.71 217.19H665.62L668.02 223.73H671.87L661.54 195.68H657.82H657.83ZM664.48 214.03H654.86L659.67 200.86L664.48 214.03Z" fill="#2C4769"/>
<path d="M703.58 203.76C703.58 198.48 699.91 195.33 693.77 195.33H685.06V223.73H688.69V212.23H693.08L699.89 223.73H704.22L697.05 211.9C701.14 210.9 703.57 207.9 703.57 203.76M699.86 203.76C699.86 207.21 697.71 209.11 693.8 209.11H688.68V198.53H693.76C697.86 198.53 699.86 200.24 699.86 203.76Z" fill="#2C4769"/>
<path d="M716.06 198.49H723.74V223.73H727.37V198.49H735.01V195.33H716.06V198.49Z" fill="#2C4769"/>
<path d="M760.36 195.68H756.64L746.27 223.73H750.12L752.52 217.19H764.43L766.83 223.73H770.68L760.36 195.68ZM763.29 214.03H753.67L758.48 200.86L763.29 214.03Z" fill="#2C4769"/>
<g opacity="0.45">
<mask id="mask0_8_86" style="mask-type:luminance" maskUnits="userSpaceOnUse" x="197" y="223" width="68" height="39">
<path d="M264.9 223.91H197.97V261.94H264.9V223.91Z" fill="white"/>
</mask>
<g mask="url(#mask0_8_86)">
<path d="M227.46 226.58C228.06 225.88 227.24 223.91 227.24 223.91C227.24 224.74 226.98 225.6 226.32 226.05C225.1 226.87 223.96 226.89 222.5 226.53C222.5 226.53 223.08 227.07 223.41 227.23C224.59 227.81 226.22 228.03 227.46 226.58Z" fill="#2C4769"/>
<path d="M201.85 240.09L201.6 240.52C202.18 242.09 201.37 243.68 199.57 244.37L199.17 245.35C200.76 245.68 201.95 244.84 202.54 243.56C203.08 242.39 203.06 241.21 201.86 240.1" fill="#2C4769"/>
<path d="M263.49 245.53L262.88 243.79C262.03 244.59 261.31 244.28 260.53 243.85C261.3 245.38 261.91 245.72 263.49 245.53Z" fill="#2C4769"/>
<path d="M239.45 227.49C239.84 227.36 240.18 227.14 240.41 226.81C240.76 226.3 240.71 225.71 240.66 225.12C240.66 225.12 239.04 224.88 239.03 224.88C239.45 224.94 239.44 225.49 239.29 225.78C238.79 226.69 237.35 226.79 236.48 226.55C236.18 226.47 235.85 226.36 235.49 226.23C235.59 226.26 235.78 226.61 235.87 226.7C236.03 226.86 236.22 227 236.42 227.13C236.82 227.37 237.27 227.53 237.73 227.61C238.26 227.7 238.91 227.69 239.47 227.5" fill="#2C4769"/>
<path d="M259.06 239.22C258.9 238.57 258.71 237.92 258.53 237.28C258.33 236.98 257.62 236.37 257.39 236.37C257.89 237.34 258.51 238.32 257.58 239.22C256.68 240.08 255.8 239.44 254.9 238.97C255.5 239.66 256.11 240.36 256.89 240.73C258.04 241.28 259.33 240.37 259.06 239.22Z" fill="#2C4769"/>
<path d="M233.22 250.96C234.22 252.6 234.36 253.91 233.67 255.04C234.34 255.18 235.02 255.33 235.7 255.48C235.79 255.15 235.86 254.81 235.87 254.46C235.9 252.81 234.78 251.33 233.22 250.96Z" fill="#2C4769"/>
<path d="M224.72 245.54C225.92 247.34 225.88 248.84 224.67 250.09C223.4 251.4 221.89 251.47 220.09 250.31C220.52 251.91 221.79 252.84 223.46 252.77C225.25 252.7 226.94 251.24 227.19 249.54C227.47 247.68 226.67 246.3 224.72 245.55" fill="#2C4769"/>
<path d="M240.98 245.94C242.18 247.85 242.2 249.56 241.01 250.58C239.94 251.5 238.14 251.33 236.58 250.06C237.48 252.16 239.08 253.09 240.96 252.77C242.25 252.55 243.48 251.21 243.56 249.95C243.67 248.15 242.55 246.42 240.97 245.94" fill="#2C4769"/>
<path d="M233 240.76C234.13 242.52 234.24 243.44 233.3 244.53C231.89 246.18 230.23 246 228.29 244.88C229.35 246.74 230.97 247.52 232.56 247.13C234.24 246.72 235.49 245.48 235.57 244.15C235.66 242.67 234.62 241.31 233.01 240.77" fill="#2C4769"/>
<path d="M216.96 251.23C217.33 251.92 217.52 252.6 217.58 253.24C218.02 253.24 218.46 253.24 218.9 253.26C218.6 252.33 217.95 251.61 216.97 251.23" fill="#2C4769"/>
<path d="M217.61 241.43C218.53 243.03 218.44 244.21 217.4 245.38C216.35 246.56 215.33 246.71 213.46 245.95C213.72 247.21 214.66 247.89 216.06 247.83C217.65 247.77 219.41 246.16 219.6 244.61C219.8 242.89 219.2 241.86 217.62 241.43" fill="#2C4769"/>
<path d="M248.54 251.49C249.53 253.31 249.33 255.19 247.94 256.3C247 257.06 245.76 256.86 244.48 255.64C245.19 258.16 247.83 259.09 249.44 257.53C250.81 256.21 250.68 253.42 249.18 251.96C248.99 251.78 248.75 251.64 248.54 251.48" fill="#2C4769"/>
<path d="M225.34 236.68C226.21 238.06 226.21 239.06 225.33 240C224.12 241.3 222.66 241.5 220.8 240.53C221.59 242.19 222.92 242.76 224.69 242.31C226.25 241.91 227.61 240.34 227.57 238.99C227.53 237.82 226.62 236.87 225.35 236.67" fill="#2C4769"/>
<path d="M240.43 242.59C241.67 242.31 242.56 241.45 242.62 240.47C242.72 238.87 241.78 237.51 240.18 237C240.83 237.98 241.77 239 240.81 240.12C239.46 241.69 237.82 241.26 236.16 240.21C237.06 242.01 238.84 242.95 240.43 242.59Z" fill="#2C4769"/>
<path d="M247.65 248.03C248.71 247.93 249.59 247.09 249.78 245.99C250.03 244.57 248.95 242.65 247.55 242.04C248.67 243.69 248.76 245.09 247.78 245.98C246.91 246.77 245.56 246.58 244.05 245.39C244.68 247.15 246.13 248.17 247.65 248.04" fill="#2C4769"/>
<path d="M233.59 237.41C234.65 236.87 235.16 236.02 235.02 234.95C234.89 233.95 233.96 233.07 232.84 232.9C233.71 234.05 233.79 234.84 233.1 235.63C232.13 236.75 230.35 236.88 228.46 235.9C229.11 237.74 232 238.21 233.58 237.41" fill="#2C4769"/>
<path d="M210.79 246.77C211.59 248.83 211.33 250.43 210.09 251.36C209.1 252.1 208.4 252.08 207.27 251.26C207.63 253.17 209.3 253.89 210.82 252.75C212.05 251.84 212.49 250.54 212.39 249.06C212.32 248.03 211.91 247.19 210.79 246.77Z" fill="#2C4769"/>
<path d="M214.6 237.53C215 237.98 215.41 238.41 215.9 238.59C217.44 239.17 219.74 238.06 220.33 236.52C220.91 234.98 220.46 233.98 218.76 233.47C219.53 234.32 219.61 235.12 219.11 235.88C218.05 237.47 216.48 237.82 214.61 237.54" fill="#2C4769"/>
<path d="M253.86 247.21C254.6 248.69 255.13 250.15 253.82 251.42C252.91 252.3 252.06 252.25 251 251.18C251.23 251.7 251.47 252.17 251.84 252.54C253.2 253.92 255.03 253.42 255.56 251.55C256.02 249.9 255.41 248.25 253.86 247.21Z" fill="#2C4769"/>
<path d="M254.23 256.42C255.03 257.99 255.11 259.32 254.3 260.47C254.75 260.59 255.19 260.71 255.64 260.83C255.73 260.56 255.79 260.27 255.83 259.97C256 258.62 255.67 257.44 254.23 256.42Z" fill="#2C4769"/>
<path d="M211.89 238.17C212.75 239.51 212.29 240.56 211.53 241.51C210.64 242.6 209.54 243.11 208.09 242.29C208.59 243.58 209.24 244.03 210.27 243.88C211.79 243.65 213.28 242 213.43 240.38C213.54 239.2 213.17 238.61 211.9 238.17" fill="#2C4769"/>
<path d="M225.82 229.44C226.59 230.35 226.76 231.19 226.03 231.96C224.8 233.26 223.32 233.4 221.62 232.68C222.59 234.25 224.61 234.58 226.38 233.56C227.25 233.06 227.92 232.39 227.81 231.28C227.7 230.24 226.93 229.82 225.82 229.44Z" fill="#2C4769"/>
<path d="M247.03 238.89C247.76 238.75 248.3 238.4 248.44 237.61C248.68 236.3 248.04 235.09 246.42 234.12C246.96 235.3 247.71 236.53 246.51 237.2C245.72 237.64 244.49 237.28 243.48 237.28C244.28 238.48 245.74 239.15 247.03 238.89Z" fill="#2C4769"/>
<path d="M239.44 234.26C240.68 234.2 241.54 233.5 241.59 232.5C241.65 231.36 240.7 230.23 239.53 230.05C240.13 230.79 240.54 231.58 239.83 232.45C239.1 233.33 237.48 233.32 235.79 232.53C236.66 233.79 237.9 234.33 239.44 234.26Z" fill="#2C4769"/>
<path d="M205.03 251.95C205.21 252.61 205.46 253.15 205.5 253.7C205.5 253.84 205.49 253.98 205.49 254.12C205.78 254.07 206.08 254.03 206.38 253.98C206.16 253.17 205.71 252.43 205.04 251.95" fill="#2C4769"/>
<path d="M254.74 242.3C254.81 240.88 254.13 239.83 252.98 239.02C253.46 240.1 254.05 241.25 253.09 242.25C252.06 243.33 251.02 242.44 249.96 242C250.65 242.77 251.36 243.53 252.24 243.95C253.47 244.54 254.68 243.68 254.74 242.3Z" fill="#2C4769"/>
<path d="M205.78 243.02C206.91 246.03 205.13 248.49 202.66 247.58C202.9 248.63 203.95 249 204.88 248.85C206.77 248.54 208.09 245.42 206.66 243.75C206.45 243.51 206.17 243.33 205.78 243.02Z" fill="#2C4769"/>
<path d="M233.74 229.92C234.96 229.02 234.93 227.69 233.66 226.84C233.38 226.65 233.07 226.53 232.95 226.47C233.34 227.55 233.3 228.15 232.9 228.61C231.87 229.79 230.46 229.45 229.1 229.36C229.89 230.67 232.51 230.83 233.75 229.93" fill="#2C4769"/>
<path d="M259.28 252.28C259.42 252.65 259.57 252.95 259.66 253.27C259.99 254.45 260 255.98 258.78 256.46C257.7 256.87 257.24 256.53 256.36 255.79C256.86 256.96 257.2 257.71 258.31 257.92C258.86 258.03 259.6 257.63 259.99 257.22C261.18 255.96 260.78 253.39 259.28 252.29" fill="#2C4769"/>
<path d="M211.36 235.8C212.92 235.64 214.55 234.14 214.69 232.75C214.78 231.8 214.42 231.18 213.33 230.94C213.96 232.12 213.59 233.06 212.77 233.83C211.87 234.68 210.83 235.2 209.42 234.49C209.79 235.6 210.48 235.88 211.37 235.79" fill="#2C4769"/>
<path d="M257.65 248.91C258.66 249.52 259.87 248.89 260.05 247.72C260.3 246.13 259.85 244.77 258.32 243.56C258.9 245.04 259.83 245.85 258.7 247.23C257.93 248.17 256.81 247.63 255.98 247.14C256.46 247.83 256.98 248.51 257.65 248.91Z" fill="#2C4769"/>
<path d="M251.7 236.09C252.9 236.13 253.63 235.28 253.38 234.11C253.15 233.02 252.51 232.21 251.5 231.69C252.35 232.66 252.71 233.48 251.87 234.4C250.87 235.48 249.82 234.89 248.82 234.11C249.39 235.23 250.62 236.06 251.71 236.1" fill="#2C4769"/>
<path d="M220.8 230.24C221.38 229.69 221.7 228.82 221.36 228.12C221.1 227.59 220.5 227.22 220.04 226.78C219.94 226.85 219.94 226.85 219.84 226.91C220.41 228.04 220.45 228.82 219.88 229.44C218.76 230.65 217.47 230.63 215.89 230.34C216.33 230.74 216.79 231.11 217.3 231.22C218.66 231.52 219.81 231.16 220.78 230.23" fill="#2C4769"/>
<path d="M200.05 251.94C199.78 252.14 199.47 252.28 199.14 252.35C198.99 252.38 198.02 252.46 197.96 252.27C198.32 253.44 199.68 253.54 200.25 253.33C201.31 252.94 201.68 252.29 201.9 250.96C202.08 249.88 201.69 249.01 200.82 248.39C201.18 248.65 201.17 249.53 201.15 249.9C201.11 250.68 200.68 251.47 200.04 251.94" fill="#2C4769"/>
<path d="M206.82 235.52C207.69 236.78 207.45 237.57 206.76 238.45C206 239.42 205.03 239.83 203.74 239.44C203.85 240.37 204.42 240.62 205.15 240.64C206.51 240.68 208.17 239.29 208.28 237.6C208.35 236.54 208.08 236.09 206.81 235.52" fill="#2C4769"/>
<path d="M247.27 229.95C247.18 228.93 246.18 227.82 245.11 227.55C246.32 228.48 246.28 229.37 245.75 229.87C244.76 230.81 243.44 230.33 242.24 230.02C243.09 231.06 244.22 231.49 245.49 231.55C246.46 231.59 247.34 230.75 247.27 229.95Z" fill="#2C4769"/>
<path d="M263.77 259.61C263.08 260.58 262.42 261.25 261.1 260.36C261.59 262 262.68 262.24 263.76 261.65C265.25 260.83 265.3 257.81 263.82 256.74C264.17 257.77 264.47 258.63 263.77 259.6" fill="#2C4769"/>
<path d="M263.17 252.2C262.42 252.81 261.8 252.39 261.16 251.86C261.59 253.58 262.93 254.28 263.95 253.39C265.26 252.26 264.95 249.47 263.43 248.58C264.07 250.18 263.97 251.54 263.17 252.19" fill="#2C4769"/>
</g>
</g>
<path d="M279.27 264.78C279.43 262.53 279.45 260.24 279.29 257.92C277.64 233.48 257.46 213.94 232.99 213.01C232.36 212.99 231.73 212.97 231.11 212.97C204.44 212.97 182.82 234.59 182.82 261.26C182.82 261.35 182.82 261.45 182.82 261.54C181.55 262.16 180.27 262.8 179 263.48C171.27 267.58 164.49 273.32 159.39 280.96L157.49 283.79L160.32 281.89C179.66 268.79 192.49 266.91 209.23 265.65C231.11 264.01 247.99 271.14 260.22 273.56C292.66 279.97 306.38 259.63 306.38 259.63C296.66 263.71 287.78 265.03 279.26 264.77M269.53 263.84C266.32 263.34 263.14 262.67 259.96 261.9C259.78 261.86 259.6 261.82 259.42 261.77C258.16 261.46 256.89 261.14 255.63 260.81C255.18 260.69 254.74 260.57 254.29 260.45C250.4 259.4 246.47 258.28 242.46 257.17C242.15 257.09 241.85 257 241.54 256.92C241.23 256.84 240.93 256.75 240.61 256.66C238.93 256.21 237.3 255.81 235.68 255.45C235 255.3 234.32 255.14 233.66 255.01C228.43 253.95 223.54 253.38 218.88 253.24C218.44 253.23 218 253.22 217.56 253.22C213.67 253.17 209.95 253.43 206.35 253.96C206.05 254 205.76 254.05 205.46 254.1C201.62 254.72 197.91 255.63 194.27 256.84C193.74 256.91 193.24 256.98 192.8 257.05C194.9 237.78 211.27 222.74 231.09 222.74C231.59 222.74 232.1 222.75 232.6 222.77C252 223.51 268.22 239.23 269.52 258.57C269.64 260.34 269.63 262.1 269.52 263.85" fill="#2C4769"/>
<path d="M259.53 281.01C247.3 278.59 230.41 271.47 208.54 273.1C200.27 273.72 192.96 274.49 185.34 276.69C191.78 295.8 209.83 309.56 231.1 309.56C250.29 309.56 266.86 298.37 274.65 282.16C270.14 282.41 265.12 282.11 259.52 281" fill="#2C4769"/>
</svg>
